<?xml version="1.0" encoding="utf-8"?>
<!-- Generator: Adobe Illustrator 24.3.0, SVG Export Plug-In . SVG Version: 6.00 Build 0)  -->
<svg version="1.1" id="Capa_1" xmlns="http://www.w3.org/2000/svg" xmlns:xlink="http://www.w3.org/1999/xlink" x="0px" y="0px"
	 viewBox="0 0 211 135.6" style="enable-background:new 0 0 211 135.6;" xml:space="preserve">
<style type="text/css">
	.st0{fill:#CE6161;stroke:#CE6161;stroke-width:0.25;stroke-miterlimit:10;}
	.st1{fill:#293A54;}
	.st2{fill:#2B2B2B;stroke:#333232;stroke-width:0.5;stroke-miterlimit:10;}
	.st3{fill:none;stroke:#293A54;stroke-width:0.25;stroke-miterlimit:10;}
	.st4{fill:#588892;}
	.st5{fill:#333333;}
</style>
<g>
</g>
<g>
	<path class="st0" d="M27.3,18.2h0.4l0,0v7h3.3l0,0v0.4l0,0h-3.7l0,0L27.3,18.2L27.3,18.2z"/>
	<path class="st0" d="M31.9,18.2h0.4l0,0V23c0,1,0.3,1.7,0.9,2.1c0.1,0.1,0.3,0.1,0.4,0.2c0.1,0,0.3,0,0.6,0h0.3
		c0.4,0,0.7-0.1,0.9-0.2c0.4-0.2,0.7-0.5,0.9-1c0.1-0.3,0.2-0.7,0.2-1v-4.8l0,0h0.4l0,0v4.6c0,0.7-0.1,1.2-0.3,1.5
		c-0.1,0.2-0.2,0.3-0.3,0.5c-0.4,0.6-1,0.8-1.7,0.8h-0.5c-0.9,0-1.5-0.4-1.9-1.3c-0.2-0.4-0.3-0.9-0.3-1.3L31.9,18.2L31.9,18.2z"/>
	<path class="st0" d="M41.4,18.2L41.4,18.2c0.9,0,1.6,0.4,2.3,1.1c0.3,0.3,0.4,0.6,0.5,0.8v0l-0.4,0.2h0c0,0-0.1-0.2-0.3-0.5
		c-0.6-0.8-1.3-1.2-2.2-1.2c-0.8,0-1.5,0.4-2.1,1.1c-0.5,0.7-0.7,1.4-0.7,2.2c0,0.9,0.3,1.7,0.9,2.4c0.3,0.3,0.5,0.4,0.6,0.5
		c0.4,0.3,0.8,0.4,1.2,0.4h0.1c0.5,0,1-0.2,1.5-0.5c0.2-0.2,0.4-0.4,0.6-0.6c0.1-0.2,0.2-0.3,0.3-0.5h0l0.3,0.2v0
		c0,0.1-0.2,0.3-0.4,0.6c-0.3,0.4-0.6,0.7-0.9,0.9c-0.5,0.3-1,0.4-1.5,0.4c-0.8,0-1.5-0.3-2.2-1c-0.4-0.4-0.6-0.8-0.8-1.2
		c-0.2-0.5-0.3-1-0.3-1.5v-0.1c0-1,0.3-1.9,1-2.7C39.8,18.6,40.5,18.2,41.4,18.2z"/>
	<path class="st0" d="M45.8,18.2v7.4l0,0h-0.4l0,0v-7.4H45.8z"/>
	<path class="st0" d="M49.6,18.2h0.5c0,0,0.1,0.4,0.4,1l2.4,6.4v0h-0.4c0,0-0.1-0.2-0.2-0.4l-0.5-1.4H48c0,0-0.1,0.3-0.3,0.9l-0.4,1
		h-0.4v0l2.5-6.8C49.5,18.5,49.5,18.3,49.6,18.2z M49.8,18.7l-1.7,4.7h3.4L49.8,18.7L49.8,18.7z"/>
	<path class="st0" d="M56.4,18.2h0.4l0,0V23c0,1,0.3,1.7,0.9,2.1c0.1,0.1,0.3,0.1,0.4,0.2c0.1,0,0.3,0,0.6,0H59
		c0.4,0,0.7-0.1,0.9-0.2c0.4-0.2,0.7-0.5,0.9-1c0.1-0.3,0.2-0.7,0.2-1v-4.8l0,0h0.4l0,0v4.6c0,0.7-0.1,1.2-0.3,1.5
		c-0.1,0.2-0.2,0.3-0.3,0.5c-0.4,0.6-1,0.8-1.7,0.8h-0.5c-0.9,0-1.5-0.4-1.9-1.3c-0.2-0.4-0.3-0.9-0.3-1.3L56.4,18.2L56.4,18.2z"/>
	<path class="st0" d="M63,18.2h2.2c0.7,0,1.2,0.3,1.7,0.8c0.4,0.5,0.6,1,0.6,1.5v0.1c0,0.5-0.2,1-0.5,1.4c-0.3,0.4-0.7,0.6-1.2,0.8
		l1.6,2.8l0,0H67c0,0-0.1-0.2-0.4-0.6l-1.2-2.1l-0.2,0h-1.7v2.7l0,0H63l0,0L63,18.2L63,18.2z M63.4,18.6v3.9h1.7
		c0.8,0,1.4-0.4,1.8-1.1c0.1-0.3,0.2-0.5,0.2-0.8v-0.1c0-0.5-0.2-0.9-0.5-1.3c-0.4-0.4-0.8-0.6-1.4-0.6H63.4z"/>
	<path class="st0" d="M71.5,18.2L71.5,18.2c0.9,0,1.6,0.3,2.3,1c0.2,0.3,0.4,0.5,0.5,0.7c0.3,0.6,0.5,1.3,0.5,1.9V22
		c0,0.8-0.3,1.6-0.8,2.3L74,24.4v0l1,1c-0.1,0.1-0.2,0.2-0.3,0.3c-0.6-0.7-0.9-1-0.9-1c-0.6,0.6-1.4,0.9-2.2,0.9
		c-0.8,0-1.6-0.3-2.2-1c-0.7-0.8-1.1-1.7-1.1-2.7v0c0-1,0.4-1.9,1.1-2.7C70,18.6,70.7,18.2,71.5,18.2z M68.6,22
		c0,0.9,0.3,1.7,0.9,2.4c0.3,0.3,0.6,0.5,0.8,0.6c0.1,0.1,0.3,0.1,0.5,0.2c0.2,0.1,0.4,0.1,0.6,0.1h0.2c0.6,0,1.1-0.2,1.7-0.7
		l0.2-0.2l-1-1l0.3-0.3l0.9,1c0.5-0.6,0.7-1.4,0.7-2.1v-0.1c0-0.8-0.3-1.6-0.8-2.3c-0.6-0.7-1.3-1-2.1-1c-0.8,0-1.5,0.4-2.1,1.1
		C68.9,20.4,68.6,21.1,68.6,22z"/>
	<path class="st0" d="M76.3,18.2h0.4l0,0V23c0,1,0.3,1.7,0.9,2.1c0.1,0.1,0.3,0.1,0.4,0.2c0.1,0,0.3,0,0.6,0h0.3
		c0.4,0,0.7-0.1,0.9-0.2c0.4-0.2,0.7-0.5,0.9-1c0.1-0.3,0.2-0.7,0.2-1v-4.8l0,0h0.4l0,0v4.6c0,0.7-0.1,1.2-0.3,1.5
		c-0.1,0.2-0.2,0.3-0.3,0.5c-0.4,0.6-1,0.8-1.7,0.8h-0.5c-0.9,0-1.5-0.4-1.9-1.3c-0.2-0.4-0.3-0.9-0.3-1.3L76.3,18.2L76.3,18.2z"/>
	<path class="st0" d="M83.3,18.2v7.4l0,0h-0.4l0,0v-7.4H83.3z"/>
	<path class="st0" d="M84.7,18.2h5v0l-4.3,6.8l-0.1,0.2h4.2l0,0v0.4l0,0h-4.9v0l3.7-5.9l0.7-1.1h-4.2l0,0L84.7,18.2L84.7,18.2z"/>
	<path class="st0" d="M92.8,18.2h0.5c0,0,0.1,0.4,0.4,1l2.4,6.4v0h-0.4c0,0-0.1-0.2-0.2-0.4l-0.5-1.4h-3.7c0,0-0.1,0.3-0.3,0.9
		l-0.4,1H90v0l2.5-6.8C92.7,18.5,92.7,18.3,92.8,18.2z M93,18.7l-1.7,4.7h3.4L93,18.7L93,18.7z"/>
</g>
<g>
	<path class="st1" d="M50.7,77.2H49l-0.6-1.4c-0.4,1.1-1.1,1.6-2,1.7c-1.9,0-2.9-1.2-2.9-3.7v-1.2c0-2.5,0.9-3.7,2.8-3.7
		c0.8,0,1.5,0.2,2,0.6v-3.1c0-0.8-0.4-1.2-1.1-1.2h0c-0.7,0-1,0.4-1,1.2v0.5h-2.5v-0.5c0-2.5,1.2-3.7,3.5-3.7c2.4,0,3.6,1.2,3.6,3.7
		V77.2z M46,73.8c0,0.8,0.4,1.2,1.1,1.2c0.7,0,1.1-0.4,1.1-1.2v-1.2c0-0.8-0.4-1.2-1.1-1.2c-0.7,0-1.1,0.4-1.1,1.2V73.8z"/>
	<path class="st1" d="M59.8,77.2h-2.5V63H59l0.4,1l0.2,0.4c0.4-1.1,1.1-1.6,2-1.7c1.2,0,2,0.6,2.4,1.7l0,0c0.4-1.1,1.1-1.6,2-1.7
		c1.8,0,2.7,1.2,2.7,3.7v10.8h-2.5V66.4c0-0.8-0.3-1.2-1-1.2c-0.4,0-0.7,0.2-0.9,0.6c0,0.2,0,0.4,0,0.6v10.8h-2.5V66.4
		c0-0.8-0.3-1.2-1-1.2c-0.6,0-1,0.4-1,1.2V77.2z"/>
	<path class="st1" d="M71.2,58.6h2.5V61h-2.5V58.6z M71.2,62.9h2.5v14.4h-2.5V62.9z"/>
	<path class="st1" d="M43.8,81.5h2.3l0.8,1.8c0.5-1.4,1.4-2.1,2.6-2.2c2.5,0,3.8,1.6,3.8,4.8v9.7c0,3.2-1.3,4.8-3.8,4.8
		c-1.1-0.1-1.9-0.6-2.4-1.7v8.8h-3.3V81.5z M47.1,95.7c0,1,0.5,1.6,1.4,1.6c1,0,1.4-0.5,1.4-1.6V86c0-1-0.5-1.6-1.4-1.6
		c-1,0-1.4,0.5-1.4,1.6V95.7z"/>
	<path class="st1" d="M55.8,86c0-3.2,1.6-4.8,4.7-4.8c3.2,0,4.8,1.6,4.8,4.8v9.7c0,3.2-1.6,4.8-4.8,4.8c-3.2,0-4.7-1.6-4.7-4.8V86z
		 M59.2,95.7c0,1,0.5,1.6,1.4,1.6c1,0,1.4-0.5,1.4-1.6V86c0-1-0.5-1.5-1.4-1.6h0c-1,0-1.4,0.5-1.4,1.6V95.7z"/>
	<path class="st1" d="M74.9,84.4h-2.2c-1,0-1.4,0.5-1.4,1.6v14.1h-3.3V81.5h2.3l0.8,1.8c0.4-1.5,1.5-2.2,3.2-2.2c0.2,0,0.4,0,0.6,0
		V84.4z"/>
	<path class="st1" d="M77.5,81.4v-4.2h3.3v4.2h2.4v2.9h-2.4v15.8h-3.3V84.3h-2.4v-2.9H77.5z"/>
	<path class="st1" d="M94.3,100.1H92l-0.8-1.8c-0.5,1.4-1.4,2.1-2.6,2.2c-2.5,0-3.8-1.6-3.8-4.8v-1.5c0-3.2,1.2-4.8,3.6-4.8
		c1.1,0,1.9,0.2,2.6,0.7V86c0-1-0.5-1.6-1.4-1.6h0c-0.9,0-1.3,0.5-1.3,1.6v0.6h-3.3V86c0-3.2,1.5-4.8,4.6-4.8c3.2,0,4.7,1.6,4.7,4.8
		V100.1z M88.1,95.7c0,1,0.5,1.6,1.4,1.6c1,0,1.4-0.5,1.4-1.6v-1.5c0-1-0.5-1.5-1.4-1.5c-1,0-1.4,0.5-1.4,1.6V95.7z"/>
	<path class="st1" d="M100.8,84.3v15.8h-3.3V84.3H96v-2.9h1.4v-0.9c0-3.2,1.6-4.8,4.7-4.8V79c-1,0-1.4,0.5-1.4,1.6v0.9h1.5v2.9
		H100.8z"/>
	<path class="st1" d="M104,86c0-3.2,1.6-4.8,4.7-4.8c3.2,0,4.8,1.6,4.8,4.8v9.7c0,3.2-1.6,4.8-4.8,4.8c-3.2,0-4.7-1.6-4.7-4.8V86z
		 M107.3,95.7c0,1,0.5,1.6,1.4,1.6c1,0,1.4-0.5,1.4-1.6V86c0-1-0.5-1.5-1.4-1.6h0c-1,0-1.4,0.5-1.4,1.6V95.7z"/>
	<path class="st1" d="M119.3,75.8v24.3H116V75.8H119.3z"/>
	<path class="st1" d="M121.9,75.8h3.3v3.1h-3.3V75.8z M121.9,81.4h3.3v18.7h-3.3V81.4z"/>
	<path class="st1" d="M127.8,86c0-3.2,1.6-4.8,4.7-4.8c3.2,0,4.8,1.6,4.8,4.8v9.7c0,3.2-1.6,4.8-4.8,4.8c-3.2,0-4.7-1.6-4.7-4.8V86z
		 M131.1,95.7c0,1,0.5,1.6,1.4,1.6c1,0,1.4-0.5,1.4-1.6V86c0-1-0.5-1.5-1.4-1.6h0c-1,0-1.4,0.5-1.4,1.6V95.7z"/>
	<path class="st1" d="M155.4,90.4l-9.4,5.1v-3.2l6.9-3.6l-6.9-3.7v-3.2l9.4,5.3V90.4z"/>
	<path class="st1" d="M173.5,90.4l-9.4,5.1v-3.2l6.9-3.6l-6.9-3.7v-3.2l9.4,5.3V90.4z"/>
	<path class="st1" d="M185.8,90.4l-9.4,5.1v-3.2l6.9-3.6l-6.9-3.7v-3.2l9.4,5.3V90.4z"/>
	<path class="st1" d="M198,90.4l-9.4,5.1v-3.2l6.9-3.6l-6.9-3.7v-3.2L198,87V90.4z"/>
</g>
<g>
	<g>
		<path class="st2" d="M145,120.3H31c-5.2,0-9.4-3.9-9.4-8.6V21c0-4.7,4.2-8.6,9.4-8.6L89,12.1c0,0,0,0,0,0c2.5,0,4.9,0.9,6.7,2.5
			l8.4,7.6c1.7,1.6,4,2.4,6.5,2.4H145c5.2,0,9.4,3.9,9.4,8.6v78.4C154.4,116.5,150.2,120.3,145,120.3z M89.1,12.4
			C89,12.4,89,12.4,89.1,12.4L31,12.7c-5,0-9.1,3.8-9.1,8.3v90.8c0,4.6,4.1,8.3,9.2,8.3h114c5.1,0,9.2-3.7,9.2-8.3V33.3
			c0-4.6-4.1-8.3-9.2-8.3h-34.4c-2.5,0-4.9-0.9-6.7-2.5l-8.4-7.6C93.8,13.3,91.5,12.4,89.1,12.4z"/>
	</g>
	<g>
		<path class="st2" d="M154.3,33.7c-45.1-0.4-130.9-0.8-132.5,0c0,0,0,0,0-0.1l-0.3-0.1c0-0.2,0.1-0.3,5.9-0.4
			c3.5-0.1,8.5-0.1,15-0.1c11,0,26.3,0,45.6,0c32.7,0.1,65.9,0.4,66.2,0.4L154.3,33.7z"/>
	</g>
</g>
<g>
	<path class="st3" d="M43,83.2h2.3l0.8,1.8c0.5-1.4,1.4-2.1,2.6-2.2c2.5,0,3.8,1.6,3.8,4.8v9.7c0,3.2-1.3,4.8-3.8,4.8
		c-1.1-0.1-1.9-0.6-2.4-1.7v8.8H43V83.2z M46.3,97.3c0,1,0.5,1.6,1.4,1.6c1,0,1.4-0.5,1.4-1.6v-9.7c0-1-0.5-1.6-1.4-1.6
		c-1,0-1.4,0.5-1.4,1.6V97.3z"/>
	<path class="st3" d="M55.1,87.6c0-3.2,1.6-4.8,4.7-4.8c3.2,0,4.8,1.6,4.8,4.8v9.7c0,3.2-1.6,4.8-4.8,4.8c-3.2,0-4.7-1.6-4.7-4.8
		V87.6z M58.4,97.3c0,1,0.5,1.6,1.4,1.6c1,0,1.4-0.5,1.4-1.6v-9.7c0-1-0.5-1.5-1.4-1.6h0c-1,0-1.4,0.5-1.4,1.6V97.3z"/>
	<path class="st3" d="M74.2,86.1h-2.2c-1,0-1.4,0.5-1.4,1.6v14.1h-3.3V83.2h2.3l0.8,1.8c0.4-1.5,1.5-2.2,3.2-2.2c0.2,0,0.4,0,0.6,0
		V86.1z"/>
	<path class="st3" d="M76.7,83.1v-4.2h3.3v4.2h2.4V86h-2.4v15.8h-3.3V86h-2.4v-2.9H76.7z"/>
	<path class="st3" d="M93.6,101.8h-2.3l-0.8-1.8c-0.5,1.4-1.4,2.1-2.6,2.2c-2.5,0-3.8-1.6-3.8-4.8v-1.5c0-3.2,1.2-4.8,3.6-4.8
		c1.1,0,1.9,0.2,2.6,0.7v-4.1c0-1-0.5-1.6-1.4-1.6h0c-0.9,0-1.3,0.5-1.3,1.6v0.6h-3.3v-0.6c0-3.2,1.5-4.8,4.6-4.8
		c3.2,0,4.7,1.6,4.7,4.8V101.8z M87.4,97.3c0,1,0.5,1.6,1.4,1.6c1,0,1.4-0.5,1.4-1.6v-1.5c0-1-0.5-1.5-1.4-1.5c-1,0-1.4,0.5-1.4,1.6
		V97.3z"/>
	<path class="st3" d="M100,86v15.8h-3.3V86h-1.4V83h1.4v-0.9c0-3.2,1.6-4.8,4.7-4.8v3.3c-1,0-1.4,0.5-1.4,1.6V83h1.5V86H100z"/>
	<path class="st3" d="M103.2,87.6c0-3.2,1.6-4.8,4.7-4.8c3.2,0,4.8,1.6,4.8,4.8v9.7c0,3.2-1.6,4.8-4.8,4.8c-3.2,0-4.7-1.6-4.7-4.8
		V87.6z M106.5,97.3c0,1,0.5,1.6,1.4,1.6c1,0,1.4-0.5,1.4-1.6v-9.7c0-1-0.5-1.5-1.4-1.6h0c-1,0-1.4,0.5-1.4,1.6V97.3z"/>
	<path class="st3" d="M118.6,77.5v24.3h-3.3V77.5H118.6z"/>
	<path class="st3" d="M121.2,77.5h3.3v3.1h-3.3V77.5z M121.2,83.1h3.3v18.7h-3.3V83.1z"/>
	<path class="st3" d="M127.1,87.6c0-3.2,1.6-4.8,4.7-4.8c3.2,0,4.8,1.6,4.8,4.8v9.7c0,3.2-1.6,4.8-4.8,4.8c-3.2,0-4.7-1.6-4.7-4.8
		V87.6z M130.4,97.3c0,1,0.5,1.6,1.4,1.6c1,0,1.4-0.5,1.4-1.6v-9.7c0-1-0.5-1.5-1.4-1.6h0c-1,0-1.4,0.5-1.4,1.6V97.3z"/>
</g>
<g>
	<path class="st4" d="M54.5,53.5c0,3.7-1.4,5.5-4.3,5.5c-1.4-0.1-2.4-0.9-3-2.5l-0.9,2.1h-2.6V30.9h3.8v7.9c0.6-1.2,1.5-1.8,2.8-1.9
		c2.9,0,4.3,1.8,4.3,5.5V53.5z M50.7,42.4c0-1.2-0.6-1.8-1.7-1.8c-1.1,0-1.6,0.6-1.6,1.8v11.1c0,1.2,0.5,1.8,1.6,1.8
		c1.1,0,1.7-0.6,1.7-1.8V42.4z"/>
	<path class="st4" d="M57.4,30.9h3.8v3.5h-3.8V30.9z M57.4,37.2h3.8v21.3h-3.8V37.2z"/>
	<path class="st4" d="M67.9,49.4v4.2c0,1.2,0.5,1.8,1.6,1.8h0c1.1,0,1.6-0.6,1.6-1.8v-1.7h3.8v1.7c0,3.7-1.8,5.5-5.4,5.5
		c-3.6,0-5.4-1.8-5.4-5.5v-11c0-3.7,1.8-5.5,5.4-5.5c3.6,0,5.4,1.8,5.4,5.5v6.9H67.9z M71.2,46v-3.5c0-1.2-0.6-1.8-1.7-1.8
		c-1.1,0-1.6,0.6-1.6,1.8V46H71.2z"/>
	<path class="st4" d="M77.9,58.6V37.4h2.6l0.9,2.1c0.6-1.6,1.6-2.4,3-2.5c2.9,0,4.3,1.8,4.3,5.5v16.1h-3.8V42.5
		c0-1.2-0.6-1.8-1.7-1.8c-1.1,0-1.6,0.6-1.6,1.8v16.1H77.9z"/>
	<path class="st4" d="M103,37.2l-0.6,4.5l-2.6,16.9h-5.2l-2.7-16.9l-0.6-4.5h3.8l2,15.3l2-15.3H103z"/>
	<path class="st4" d="M109.4,49.4v4.2c0,1.2,0.5,1.8,1.6,1.8h0c1.1,0,1.6-0.6,1.6-1.8v-1.7h3.8v1.7c0,3.7-1.8,5.5-5.4,5.5
		c-3.6,0-5.4-1.8-5.4-5.5v-11c0-3.7,1.8-5.5,5.4-5.5c3.6,0,5.4,1.8,5.4,5.5v6.9H109.4z M112.7,46v-3.5c0-1.2-0.6-1.8-1.7-1.8
		c-1.1,0-1.6,0.6-1.6,1.8V46H112.7z"/>
	<path class="st4" d="M119.4,58.6V37.4h2.6l0.9,2.1c0.6-1.6,1.6-2.4,3-2.5c2.9,0,4.3,1.8,4.3,5.5v16.1h-3.8V42.5
		c0-1.2-0.6-1.8-1.7-1.8c-1.1,0-1.6,0.6-1.6,1.8v16.1H119.4z"/>
	<path class="st4" d="M133.1,30.9h3.8v3.5h-3.8V30.9z M133.1,37.2h3.8v21.3h-3.8V37.2z"/>
	<path class="st4" d="M139.8,42.4c0-3.7,1.4-5.5,4.3-5.5c1.2,0.1,2.2,0.7,2.8,1.9v-7.9h3.8v27.6H148l-0.9-2.1
		c-0.6,1.6-1.6,2.4-3,2.5c-2.9,0-4.3-1.8-4.3-5.5V42.4z M143.6,53.5c0,1.2,0.6,1.8,1.7,1.8c1.1,0,1.6-0.6,1.6-1.8V42.4
		c0-1.2-0.5-1.8-1.6-1.8c-1.1,0-1.7,0.6-1.7,1.8V53.5z"/>
	<path class="st4" d="M153.6,42.5c0-3.7,1.8-5.5,5.4-5.5c3.6,0,5.4,1.8,5.4,5.5v11c0,3.7-1.8,5.5-5.4,5.5c-3.6,0-5.4-1.8-5.4-5.5
		V42.5z M157.3,53.5c0,1.2,0.5,1.8,1.6,1.8c1.1,0,1.7-0.6,1.7-1.8v-11c0-1.2-0.5-1.8-1.6-1.8h0c-1.1,0-1.6,0.6-1.6,1.8V53.5z"/>
	<path class="st4" d="M171.1,51.8v1.7c0,1.2,0.5,1.8,1.6,1.8h0c1.1,0,1.6-0.6,1.6-1.8v-0.2c0-1.2-1.2-2.6-3.5-4.3
		c-2.4-1.7-3.5-3.7-3.5-6v-0.5c0-3.7,1.8-5.5,5.4-5.5c3.6,0,5.4,1.8,5.4,5.5v1.7h-3.8v-1.7c0-1.2-0.6-1.8-1.7-1.8
		c-1.1,0-1.6,0.6-1.6,1.8v0.2c0,1.3,1.2,2.7,3.5,4.4c2.4,1.7,3.5,3.7,3.5,6.1v0.3c0,3.7-1.8,5.5-5.4,5.5c-3.6,0-5.4-1.8-5.4-5.5
		v-1.7H171.1z"/>
</g>
<g>
	<g>
		<path class="st5" d="M170.1,103.5c-0.2,0.2-0.4,0.3-0.6,0.5c-0.8,0.4-1.6,0.8-2.5,1.2c-0.6,0.3-1.1,0.8-1.4,1.4
			c-0.4,0.9-0.9,1.8-1.3,2.7c-0.1,0.2-0.2,0.3-0.5,0.5c-0.1-0.1-0.2-0.3-0.3-0.4c-1.1-3-2.1-5.9-3.2-8.9c0-0.1-0.1-0.2-0.1-0.3
			c-0.1-0.2,0.1-0.4,0.3-0.3c0.4,0.1,0.8,0.3,1.3,0.4c2.6,0.9,5.1,1.9,7.7,2.8C169.8,103.2,169.9,103.3,170.1,103.5
			C170.1,103.5,170.1,103.5,170.1,103.5z M160.9,100.5c1,2.8,2,5.6,3.1,8.5c0-0.1,0.1-0.1,0.1-0.2c0.5-0.9,0.9-1.9,1.4-2.8
			c0.2-0.4,0.5-0.7,0.9-0.9c0.8-0.4,1.6-0.8,2.3-1.2c0.2-0.1,0.4-0.2,0.6-0.3C166.5,102.5,163.7,101.5,160.9,100.5z"/>
	</g>
	<g>
		<path class="st5" d="M162.8,99.2c0-0.2,0-0.4,0.2-0.5c0.6-0.5,1.1-1.1,1.7-1.7c0.1-0.1,0.2-0.1,0.2-0.1c0.1,0,0.2,0,0.2,0.1
			c0.1,0.1,0,0.1,0,0.2c-0.2,0.2-0.4,0.4-0.6,0.6c-0.4,0.4-0.9,0.8-1.3,1.3C163.1,99.2,163,99.2,162.8,99.2z"/>
	</g>
	<g>
		<path class="st5" d="M157.3,104.6c0-0.2,0-0.3,0.1-0.5c0.6-0.6,1.1-1.1,1.7-1.7c0.1-0.1,0.2-0.1,0.3-0.1c0.1,0,0.2,0.1,0.1,0.2
			c0,0.1-0.1,0.1-0.1,0.2c-0.6,0.6-1.2,1.2-1.8,1.8C157.6,104.7,157.5,104.7,157.3,104.6z"/>
	</g>
	<g>
		<path class="st5" d="M159.5,99.2c-0.2,0-0.4,0-0.5-0.2c-0.5-0.6-1.1-1.1-1.6-1.6c-0.1-0.1-0.1-0.2-0.1-0.4c0-0.1,0.1-0.2,0.2-0.1
			c0.1,0,0.2,0.1,0.2,0.2c0.6,0.6,1.1,1.1,1.7,1.7C159.5,98.8,159.6,99,159.5,99.2z"/>
	</g>
	<g>
		<path class="st5" d="M155.7,100.8c0.1-0.2,0.3-0.2,0.4-0.2c0.8,0,1.5,0,2.3,0c0.2,0,0.3,0.1,0.4,0.2c-0.1,0.1-0.2,0.2-0.3,0.2
			c-0.8,0-1.6,0-2.4,0C155.9,101,155.9,101,155.7,100.8z"/>
	</g>
	<g>
		<path class="st5" d="M161.1,95.3c0.2,0.1,0.3,0.3,0.3,0.5c0,0.8,0,1.5,0,2.3c0,0.2-0.1,0.3-0.2,0.5c-0.1-0.1-0.2-0.2-0.2-0.4
			c0-0.8,0-1.6,0-2.5C161,95.5,161.1,95.4,161.1,95.3z"/>
	</g>
</g>
</svg>
