<?xml version="1.0" encoding="utf-8"?>
<!-- Generator: Adobe Illustrator 24.3.0, SVG Export Plug-In . SVG Version: 6.00 Build 0)  -->
<svg version="1.1" id="Capa_1" xmlns="http://www.w3.org/2000/svg" xmlns:xlink="http://www.w3.org/1999/xlink" x="0px" y="0px"
	 viewBox="0 0 882 725.5" style="enable-background:new 0 0 882 725.5;" xml:space="preserve">
<style type="text/css">
	.st0{fill:#D29C6B;}
	.st1{fill:#588892;}
	.st2{fill:none;stroke:#000000;stroke-miterlimit:10;}
	.st3{fill:#CE6161;}
	.st4{stroke:#000000;stroke-miterlimit:10;}
	.st5{fill:#FFFFFF;}
	.st6{enable-background:new    ;}
</style>
<g>
	<path class="st0" d="M218,474.7c0,0,19.2,4.3,24.9-13.3c0,0,20.2-5.7,15.1-26.7c0,0,15.5-10.8,12.7-24.5c0,0,61.5,5.7,109.6,71.1
		c0,0,60.6,71.3,0.9,127.1c0,0-87.3,8.4-106.7,0c0,0-47.4-19.9-69.8-127.7C204.7,480.8,213.1,484.2,218,474.7z"/>
	<path class="st1" d="M189.8,309.9c0,0,4.2,15.7,23.5,37.8s54.6,59.5,54.6,59.5s51.9,11.6,82.5,44.1c0,0,80.6-48.8,64.2-134.9
		C414.6,316.3,271.2,365.6,189.8,309.9z"/>
	<path class="st2" d="M167.8,201.3c-0.1-2.5-0.9-13.3,0-19.2c1.3-9.2,7.1-36.4-0.8-74C157.1,61.8,177.6,36,177.6,36
		s37.3-45.3,82.7,13.3l24.9,37.3l31.1,0.9c0,0,27.4-60.1,68-68.3s46.7,66.5,47.6,75.4s2.7,63.1,4.5,78.2s-0.9,66.7-11.6,100.5
		c0,0,8.9,16,2.7,27.6c0,0,13.3,16,31.1,5.3l18.1-81.2c0.4-1.6,0.5-3.2,0.5-4.8V181c0-0.8-0.1-1.6-0.3-2.4c-2.1-9-14.1-69,44.7-64.5
		c51.1,3.9,41.7,36.7,37.4,47c-0.6,1.5-1.7,2.8-3,3.8c-3.3,2.2-10.4,11.5-10.4,50.6c0,50.7-0.9,134.2-27.6,155.6
		c-26.7,21.3-61.3,24-61.3,24s32.9,0,36.5,71.1c0,0,3.6,35.6-15.1,55.1c0,0,12.8,69.9-16.8,78.5c-0.2,0.1-0.5,0.2-0.7,0.3
		c-1.3,0.6-10.1,3-70-0.2l-9.3,8.5c0,0,2.7,0.9,0,5.3c0,0,1.8,4.5-39.1,4.5s-52.5,0-52.5,0s-12.4-1.8-14.2-8.9l-14.1-8.3
		c-2.1-1.2-4.6-1.8-7-1.5l-21.1,2.3c-16.9,0.9-35.6,5.3-61.8-4c-25.8-9.2-24-37.3-23.1-60.5c0,0,4.4-17.8-8-45.3
		c-12.4-27.5,4.4-77.3,11.6-81.8c0,0-31.1-40,8-80c0,0,13.3-11.6,30.2-20.5c0,0-3.6-11.6,2.7-30.2
		C192.7,279.5,170.5,251.1,167.8,201.3z"/>
	<path class="st3" d="M179.8,137.8c0.9,0,9.8-22.2,39.1-35.6C248.3,88.9,258,91.5,258,91.5s-26.7-64-58.7-55.1
		C167.4,45.3,179.8,137.8,179.8,137.8z"/>
	<path class="st3" d="M347,95.1c0,0,48,5.3,72.9,36.5c0,0,13-62.6-17.7-89.8c-4.7-4.2-11.4-5.6-17.2-3.4
		C374.9,42,360.5,54.9,347,95.1z"/>
	<path class="st2" d="M208.3,168.9c0,0,5.3,19.6,30.2,15.1s25.7-15.1,25.7-15.1s2.8-13.3-22.1-18.7S208.3,168.9,208.3,168.9z"/>
	<path class="st2" d="M396.7,174.2c0,0-7.1,11.6-37.3,8.9s-24-18.7-24-18.7s5.4-19.3,31.6-15C393.2,153.8,396.7,174.2,396.7,174.2z"
		/>
	<ellipse class="st4" cx="234.5" cy="164.9" rx="15.6" ry="14.7"/>
	<ellipse class="st4" cx="363.4" cy="164.9" rx="15.6" ry="14.7"/>
	<path class="st0" d="M321.2,212.4c0,0-3.6-13.3-21.3-12.5c-17.8,0.9-21.3,11.6-21.3,11.6S291,224,299,223.1
		C306.9,222.2,321.2,212.4,321.2,212.4z"/>
	<path class="st3" d="M318.5,207.4l-15.6,9c-2.4,1.4-5.5,1.3-7.9-0.2l-13.9-8.8l-2.7,4.1c0,0,12.9,13.6,20.4,11.6
		c7.6-2.1,22.2-10.7,22.2-10.7L318.5,207.4z"/>
	<path class="st2" d="M350.5,224.9c0,0,24.7-18.5,74.1-7.5"/>
	<path class="st2" d="M352.3,234.6c0,0,38.4-14.5,70.3,1.2"/>
	<path class="st2" d="M349.2,247.2c0,0,29.5-14.1,65.6,0"/>
	<path class="st2" d="M255.4,227.5c0,0-18.2-15-70-10.2"/>
	<path class="st2" d="M252.7,237.3c0,0-35.6-15.3-69.4-1.5"/>
	<path class="st2" d="M255.4,248.8c0,0-28.7-13.9-66.4-1.6"/>
	<path class="st3" d="M265.1,261.4c5.6-0.4,23.1-3.8,33.3-10.7c0.9-0.6,2-0.6,2.9-0.1c3.8,2.2,13.5,10,30.5,12.8
		c0.5,0.1,2,0.5,2,0.9l0,0c0,1.4-1.2,2.6-2.6,2.6c-6-0.2-20.4-3.8-30-11c-0.9-0.6-2-0.7-2.9-0.3c-5.3,2.6-22.5,10.6-32.6,9.1
		c-0.9-0.1-1.6-0.8-1.8-1.7l0,0C263.6,262.3,264.2,261.5,265.1,261.4z"/>
	<path class="st2" d="M192.7,279.5c0,0,44,26.9,107.1,23.4s96-5.2,124.9-29.7"/>
	<path class="st2" d="M190.9,308.8c0,0,17.7,27.6,94.2,27.8"/>
	<path class="st2" d="M427.4,300.9c0,0-8.4,27.6-95.5,33.1"/>
	<path class="st2" d="M270.7,410.2c6.3,0.6,12.5,1.8,18.6,3.6c21.4,6.2,40.2,18.9,57.2,33l4.3,3.6c10.8,9.6,22.4,18.5,29.5,30.9
		c0.9,0.9,1.8,1.8,2.7,2.7c22.2,32,32.9,71.1,14.2,105.8c-0.9,0.9-1.8,1.8-2.7,2.7c-3.6,7.1-8.9,12.5-15.1,16.9
		c-34.7,1.8-70.2,6.2-104.9-0.9c-13.3-5.3-21.3-16.9-30.2-28.5c-21.3-31.1-30.2-64.9-39.6-99.2c0,0,8.4,3.4,13.4-6.1"/>
	<path class="st2" d="M349.9,448.2c4.6-3.2,9.9-5.9,15.2-9.5c21.3-16,36.5-35.6,45.3-59.6c1.8-5.3,3.6-9.8,4.5-15.1
		c1.8-16.9,3.6-33.8-2.3-48.9"/>
	<path class="st2" d="M160.2,528c0,0,16.4,10.8,60.2,4.9"/>
	<path class="st2" d="M404.1,529.6c0,0,31,7.3,65.2-1.6"/>
	<path class="st2" d="M456.8,395.1c0,0-37.8,10.2-60.9,88.5"/>
	<path class="st0" d="M201.1,456.9c0,0,3.6,13.3,16.9,17.8C218,474.7,218.9,462.2,201.1,456.9z"/>
	<path class="st0" d="M222.2,441.6c0,0,7.4,17.1,20.7,19.8C242.9,461.4,237.9,447.6,222.2,441.6z"/>
	<path class="st0" d="M239.4,421.3c0,0,6.2,11.6,18.7,13.3C258.1,434.7,257.2,425.8,239.4,421.3z"/>
	<circle class="st3" cx="256.3" cy="417.8" r="5.3"/>
	<ellipse class="st3" cx="246.5" cy="444.5" rx="5.3" ry="7.1"/>
	
		<ellipse transform="matrix(0.7868 -0.6172 0.6172 0.7868 -237.8294 239.5181)" class="st3" cx="227.8" cy="464" rx="7.1" ry="5.3"/>
	<ellipse class="st3" cx="206.5" cy="474.2" rx="5.3" ry="3.1"/>
	<path class="st2" d="M458.5,306.2c0,0-6,17.3,10.1,25.3"/>
	<path class="st2" d="M311.2,218.4"/>
	<path class="st0" d="M497.4,148.8h7.9c0,0,2,6.9-3.9,7.7S497.4,148.8,497.4,148.8z"/>
	<path class="st0" d="M516.8,150.2h8.2c0,0,1.8,8.6-4.1,8.7C515,159.1,516.8,150.2,516.8,150.2z"/>
	<path class="st0" d="M535.9,150.2h9.1c0,0,1.3,8.6-4.5,8.7C534.5,159.1,535.9,150.2,535.9,150.2z"/>
	<path class="st0" d="M553.4,150.2h7.6c0,0,2.2,8.4-5.5,8.7C551.4,159.1,553.4,150.2,553.4,150.2z"/>
	<path class="st3" d="M178.9,568c0,0-10.7,20.8,0,32.2C178.9,600.2,181.6,582.3,178.9,568z"/>
	<path class="st3" d="M204.7,575.7c0,0-8.9,15,1.8,27.8C206.5,603.5,210.8,599,204.7,575.7z"/>
	<path class="st3" d="M226.2,568c0,0-6.2,22.3,3.9,33.4l3,0.4C233.1,601.8,231.8,579.6,226.2,568z"/>
	<path class="st3" d="M416.7,569.6c0,0-6.4,26.3-2.5,30.6h4.2C418.4,600.2,422.4,584.5,416.7,569.6z"/>
	<path class="st3" d="M441.2,566.3c0,0-0.1,0.6-0.4,1.7c-1.4,6.5-5.7,29.7,0.4,33.7C441.2,601.6,449.2,592.9,441.2,566.3z"/>
	<path class="st3" d="M463.2,568c-0.5-1.7-5,30-2,31.9C461.2,599.9,471.9,596.5,463.2,568z"/>
	<path class="st0" d="M166.5,595.7c0,0-2.3-9.2,2-8.2s8.7,12.2,8.7,12.2L166.5,595.7z"/>
	<path class="st0" d="M201.1,603.6c-0.9-4.5-6.2-9.8-10.8-10c-4.6-0.3-2.4,8.7-2.4,8.7L201.1,603.6z"/>
	<path class="st0" d="M227.8,602.2c0,0-0.9-5.7-7.4-5.6s-4.8,6.7-4.8,6.7L227.8,602.2z"/>
	<path class="st0" d="M253,599.7c0,0-1.2-5-6.5-5s-7.1,6.4-7.1,6.4L253,599.7z"/>
	<path class="st0" d="M412.9,601.6c0,0-0.2-6-6.2-6.9s-7.1,5.8-7.1,5.8L412.9,601.6z"/>
	<path class="st0" d="M436.7,601.2c0,0-0.8-4.7-6.2-4.6s-4.2,4.8-4.2,4.8L436.7,601.2z"/>
	<path class="st0" d="M458.1,600.2c0,0,5.3-5.5-1.3-7.9c-6.7-2.4-9.9,7.6-9.9,7.6S449,602.5,458.1,600.2z"/>
	<path class="st2" d="M434.5,321.8c0,0,1.4,25.8,13,48"/>
	<path class="st2" d="M378.1,152.7c0,0,7.4-1.6,9.5-6.9"/>
	<path class="st2" d="M385.3,156.3c0,0,7.4-1.6,9.5-6.9"/>
	<path class="st2" d="M390.6,162.5c0,0,7.4-1.6,9.5-6.9"/>
	<path class="st2" d="M223.3,152.2c0,0-7.4-1.6-9.5-6.9"/>
	<path class="st2" d="M216.9,155.8c0,0-7.4-1.6-9.5-6.9"/>
	<path class="st2" d="M211.6,163c0,0-7.4-1.6-9.5-6.9"/>
	<circle class="st0" cx="339.4" cy="317.8" r="4"/>
	<ellipse class="st0" cx="396.7" cy="309.8" rx="3.6" ry="4.9"/>
	<circle class="st0" cx="282.5" cy="317.8" r="4"/>
	<ellipse class="st0" cx="219.4" cy="310.7" rx="3.1" ry="4.9"/>
	<path d="M263.8,489.5c-2.6-2.7-5.6-2.2-8.5-0.7c-4.3,2.2-8.5,4.6-12.8,6.9c-1.3,0.7-2.7,1.6-4,1.7c-1.7,0.1-3.4-0.5-5.1-0.9
		c0.5-1.5,0.6-3.5,1.7-4.5c4.9-4.8,10.5-9.1,15.2-14.2c7.2-7.7,14.2-15.7,20.8-24c4.6-5.8,6.9-6.9,14-4.4c-0.6,1.9-0.8,4-1.8,5.6
		c-3.2,4.8-6.8,9.2-10,14c-1.5,2.2-2.8,4.5-3.5,7c-1.5,5.9,0.5,7.8,6.6,6.9c4.8-4.4,10.9-7.5,13.4-14.2c2.1-2.7,3.8-5.8,6.3-7.8
		c2.3-1.8,5.5-2.8,8.4-3.5c0.7-0.2,2,2.1,3,3.2c-7.7,9.2-15.4,18.5-23.1,27.7c-0.7,0.9-1.9,1.7-2.1,2.7c-0.4,2.1-0.3,4.3-0.4,6.5
		c2.2-0.2,5,0.4,6.5-0.8c2.1-1.6,3.3-4.5,4.9-6.8c6.6-5.6,13-11.5,19.9-16.7c1.9-1.5,5.1-1.5,7.7-1.7c0.9-0.1,2.6,1.3,2.7,2.1
		c0.1,1-1,2.3-1.9,3c-2.4,1.7-5.2,2.9-7.5,4.7c-10.5,8.4-19.4,18.2-26.9,29.3c-1.4,2.1-2.9,4.3-4.3,6.4c0.4,0.6,0.9,1.2,1.3,1.7
		c2.1-0.6,4.9-0.6,6.3-2c7.4-7.9,14.4-16.1,21.5-24.2c0.3-0.3,0.6-0.5,0.9-0.8c1-0.4,2-0.9,3.1-1.3c3.4-1.6,6.2-4.8,10.6-4
		c0.9,0,1.7,0,2.5,0c5.8,1.6,8.2,4.4,8.8,10.6c-1.5,2.7-3.6,4.4-7,3.6c-0.6-1.8-1.6-3.5-1.8-5.2c-0.3-2.6-1.8-3.4-3.8-2.8
		c-1.8,0.5-3.4,1.8-5.1,2.7c-2.6,3.1-5.2,6.2-7.8,9.3c-10.1,11.2-20.2,22.4-30.3,33.5c-3.9,2.7-7.6,5.7-11.7,7.9
		c-2.6,1.4-5.9,2-7.9-1.7c1.6-1.9,3-4,4.9-5.5c2.9-2.3,6.2-3.9,9.1-6.2c2.3-1.8,3-4.3,1.1-7c-1.6-3-3.8-2-6-0.8
		c-3.8,1.9-7.7,3.8-11.6,5.5c-1.2,0.5-2.7,0.9-3.9,0.6c-1.7-0.5-3.2-1.8-4.9-2.7c1.3-1.2,2.4-3,3.9-3.4c7.4-2.3,13.4-6.7,18.5-12.4
		c2.2-2.5,3.1-5.5,0.7-7.8c-1.1-1.1-4.6-0.8-6.3,0.1c-6.7,3.5-13,7.5-19.6,11.2c-2.6,1.4-5.4,2.8-8.1,0c-0.5-3.5,1.6-5.5,4.2-7
		c5.5-3.3,11.1-6.5,16.5-10C265,496.2,265.6,493.9,263.8,489.5z"/>
	<path d="M332.1,567.4c-2.2,1.9-4.4,3.8-6.7,5.7c-4.6,3.9-9.7,3-10.9-2c3.6-2.8,7.5-5.4,10.8-8.6c2.9-2.8,2.3-4.9-1.2-7.2
		c-4.6-3.4-9.2-2.7-13.2,0.8c-5,4.4-9.5,9.4-14.2,14.1c0.7,2.9,0.6,6.3,2.2,8.6c2.1,3,5.5,5.2,8.3,7.8c0.8,0.7,1.2,1.8,1.7,2.8
		c-1.1,0.4-2.2,1-3.4,1.1c-0.8,0.1-1.7-0.5-2.5-0.7c-6.3-5.5-12.6-11-18.9-16.5c-1.9-1.7-2.2-3.7-0.4-5.8c3.9-2.1,8-3.8,11.6-6.3
		c7.2-4.8,14.1-10.2,21.2-15.1c5.1-3.5,5.4-4.8,1.6-10.6c-4.1-5.1-6.2-5.2-10.5-0.4c-1.6,1.8-3.2,3.6-4.4,5.6
		c-4.5,7.5-11.2,12.6-19,16c-4.7,2-9.9,3.3-14.8,0c1-0.8,1.9-2.2,2.9-2.4c8.4-1.3,15-5.8,20.9-11.5c2.1-2.1,3-5.5,4.4-8.3
		c0.9-1.2,1.8-2.3,2.8-3.5c2.1-2.6,4.9-5,6-8c2.2-5.7,6.3-8.5,11.8-10.1c0.8-0.2,1.6-0.7,2.5-1c10.4-3.6,20.7-8,32.1-6.7
		c1.8,3,0.9,4.3-2.5,4.4c-10.2,0.3-18.2,6.4-26.6,11.1c-3.9,2.2-3.7,8.5-0.6,11.2c2.9,2.6,5.3,2.3,8.1-1.1c-0.7-0.1-1.3-0.2-2.4-0.5
		c3.5-3.4,6.3-7.1,10-9.7c8.5-6.1,19.9-2.8,23.4,7.3c2,5.7,2.8,12.1,2.6,18.2c-0.1,3.5-3.1,6.9-4.9,10.4c-2.2,0.1-2.8-0.9-2.3-3
		c0.8-3.6-1.5-4.5-4.4-4.1c-1.8,0.3-3.8,1.1-5.1,2.3C342.6,557,337.4,562.3,332.1,567.4z M326.1,544.5c-0.7,4.5,2,7,5.6,8.3
		c3.7,1.5,7.2,0.8,9.5-3c1.4-5.3-1.2-10.5-5.9-12C331.6,536.6,327.9,539.3,326.1,544.5z M352.8,524.1c-5.4-1.3-9.9-0.2-13.5,4.2
		c-0.2,1.8-1.2,4.1-0.4,5.3c1.5,2.4,3.7,4.6,6,6.3c4.1,2.9,8.4,1.7,10.8-2.5C358,533.4,356.4,525.9,352.8,524.1z"/>
	<path class="st3" d="M512.4,123.6c0,0.9-3.6,24.5-4.5,44.5c0,0,11.8-14.5,4.5-43.6"/>
	<path class="st3" d="M530,129c0,0,2.8,23.5-4.9,40.5C525.1,169.5,540,162.8,530,129z"/>
	<path class="st3" d="M546.7,129.8c0,0,6.4,23.6-4.5,41.8c0,0,17.3-7.3,6.4-41.8"/>
	<circle class="st5" cx="233.7" cy="158.9" r="5.4"/>
	<circle class="st5" cx="364.3" cy="158.9" r="5.4"/>
	
		<ellipse transform="matrix(0.1602 -0.9871 0.9871 0.1602 -87.2558 598.8432)" class="st0" cx="308.3" cy="350.7" rx="28.9" ry="28.9"/>
	<path class="st2" d="M198.5,331.6l72.2,78.7c2,12.9-12.7,24.5-12.7,24.5c5.3,23.1-15.1,26.7-15.1,26.7
		c-6.2,17.8-24.9,13.3-24.9,13.3s-15.1,17.8-29-12.5s-37.2-51.9-37.2-51.9"/>
</g>
<g class="st6">
	<path class="st3" d="M196.1,670.4l-46.6,25.2v-15.8l33.9-17.9l-33.9-18.5v-15.9l46.6,26.1V670.4z"/>
	<path class="st3" d="M256.5,670.4L210,695.6v-15.8l33.9-17.9L210,643.3v-15.9l46.6,26.1v16.9H256.5z"/>
	<path class="st3" d="M317,670.4l-46.6,25.2v-15.8l33.9-17.9l-33.9-18.5v-15.9l46.6,26.1V670.4z"/>
	<path class="st3" d="M377.4,670.4l-46.6,25.2v-15.8l33.9-17.9l-33.9-18.5v-15.9l46.6,26.1V670.4z"/>
	<path class="st3" d="M437.8,670.4l-46.6,25.2v-15.8l33.9-17.9l-33.9-18.5v-15.9l46.6,26.1V670.4z"/>
	<path class="st3" d="M498.2,670.4l-46.6,25.2v-15.8l33.9-17.9l-33.9-18.5v-15.9l46.6,26.1V670.4z"/>
	<path class="st3" d="M558.6,670.4L512,695.6v-15.8l33.9-17.9L512,643.4v-15.9l46.6,26.1V670.4z"/>
	<path class="st3" d="M619,670.4l-46.6,25.2v-15.8l33.9-17.9l-33.9-18.5v-15.9l46.6,26.1V670.4z"/>
	<path class="st3" d="M679.5,670.4l-46.6,25.2v-15.8l33.9-17.9l-33.9-18.5v-15.9l46.6,26.1V670.4z"/>
	<path class="st3" d="M739.9,670.4l-46.6,25.2v-15.8l33.9-17.9l-33.9-18.5v-15.9l46.6,26.1V670.4z"/>
	<path class="st3" d="M800.3,670.4l-46.6,25.2v-15.8l33.9-17.9l-33.9-18.5v-15.9l46.6,26.1V670.4z"/>
	<path class="st3" d="M860.7,670.4l-46.6,25.2v-15.8l33.9-17.9l-33.9-18.5v-15.9l46.6,26.1V670.4z"/>
</g>
</svg>
