<?xml version="1.0" encoding="utf-8"?>
<!-- Generator: Adobe Illustrator 24.3.0, SVG Export Plug-In . SVG Version: 6.00 Build 0)  -->
<svg version="1.1" id="Capa_1" xmlns="http://www.w3.org/2000/svg" xmlns:xlink="http://www.w3.org/1999/xlink" x="0px" y="0px"
	 viewBox="0 0 126.5 82.7" style="enable-background:new 0 0 126.5 82.7;" xml:space="preserve">
<style type="text/css">
	.st0{fill:#CE6161;stroke:#CE6161;stroke-width:0.5;stroke-miterlimit:10;}
	.st1{fill:#293A54;}
	.st2{fill:#2B2B2B;stroke:#333232;stroke-width:0.5;stroke-miterlimit:10;}
	.st3{fill:none;stroke:#293A54;stroke-width:0.25;stroke-miterlimit:10;}
	.st4{fill:#588892;}
	.st5{fill:#333333;}
</style>
<g>
	<path class="st0" d="M12.3,12.1h0.3l0,0v4.6h2.2l0,0V17l0,0h-2.4l0,0v-4.9H12.3z"/>
	<path class="st0" d="M15.3,12.1h0.3l0,0v3.1c0,0.7,0.2,1.1,0.6,1.4c0.1,0.1,0.2,0.1,0.3,0.1c0.1,0,0.2,0,0.4,0H17
		c0.3,0,0.5-0.1,0.6-0.1c0.3-0.1,0.5-0.3,0.6-0.7c0.1-0.2,0.1-0.5,0.1-0.7v-3.1l0,0h0.3l0,0v3c0,0.5-0.1,0.8-0.2,1
		c-0.1,0.1-0.1,0.2-0.2,0.3c-0.3,0.4-0.7,0.5-1.1,0.5h-0.3c-0.6,0-1-0.3-1.2-0.9c-0.1-0.3-0.2-0.6-0.2-0.9L15.3,12.1L15.3,12.1z"/>
	<path class="st0" d="M21.6,12.1L21.6,12.1c0.6,0,1,0.3,1.5,0.7c0.2,0.2,0.3,0.4,0.3,0.5l0,0l-0.3,0.1l0,0c0,0-0.1-0.1-0.2-0.3
		c-0.4-0.5-0.9-0.8-1.4-0.8s-1,0.3-1.4,0.7c-0.3,0.5-0.5,0.9-0.5,1.4c0,0.6,0.2,1.1,0.6,1.6c0.2,0.2,0.3,0.3,0.4,0.3
		c0.3,0.2,0.5,0.3,0.8,0.3h0.1c0.3,0,0.7-0.1,1-0.3c0.1-0.1,0.3-0.3,0.4-0.4c0.1-0.1,0.1-0.2,0.2-0.3l0,0l0.2,0.1l0,0
		c0,0.1-0.1,0.2-0.3,0.4c-0.2,0.3-0.4,0.5-0.6,0.6c-0.3,0.2-0.7,0.3-1,0.3c-0.5,0-1-0.2-1.4-0.7c-0.3-0.3-0.4-0.5-0.5-0.8
		s-0.2-0.7-0.2-1v-0.1c0-0.7,0.2-1.2,0.7-1.8C20.5,12.4,21,12.1,21.6,12.1z"/>
	<path class="st0" d="M24.4,12.1V17l0,0h-0.3l0,0v-4.9H24.4z"/>
	<path class="st0" d="M26.9,12.1h0.3c0,0,0.1,0.3,0.3,0.7l1.6,4.2l0,0h-0.3c0,0-0.1-0.1-0.1-0.3l-0.3-0.9h-2.5c0,0-0.1,0.2-0.2,0.6
		L25.4,17h-0.3l0,0l1.6-4.5C26.9,12.3,26.9,12.2,26.9,12.1z M27.1,12.4L26,15.5h2.2L27.1,12.4L27.1,12.4z"/>
	<path class="st0" d="M31.4,12.1h0.3l0,0v3.1c0,0.7,0.2,1.1,0.6,1.4c0.1,0.1,0.2,0.1,0.3,0.1s0.2,0,0.4,0h0.2c0.3,0,0.5-0.1,0.6-0.1
		c0.3-0.1,0.5-0.3,0.6-0.7c0.1-0.2,0.1-0.5,0.1-0.7v-3.1l0,0h0.3l0,0v3c0,0.5-0.1,0.8-0.2,1c-0.1,0.1-0.1,0.2-0.2,0.3
		C34,16.9,33.6,17,33.2,17h-0.3c-0.6,0-1-0.3-1.2-0.9c-0.1-0.3-0.2-0.6-0.2-0.9L31.4,12.1L31.4,12.1z"/>
	<path class="st0" d="M35.7,12.1h1.4c0.5,0,0.8,0.2,1.1,0.5s0.4,0.7,0.4,1v0.1c0,0.3-0.1,0.7-0.3,0.9c-0.2,0.3-0.5,0.4-0.8,0.5
		l1,1.8l0,0h-0.3c0,0-0.1-0.1-0.3-0.4l-0.8-1.4H37h-1.1V17l0,0h-0.3l0,0L35.7,12.1L35.7,12.1z M36,12.4V15h1.1
		c0.5,0,0.9-0.3,1.2-0.7c0.1-0.2,0.1-0.3,0.1-0.5v-0.1c0-0.3-0.1-0.6-0.3-0.9c-0.3-0.3-0.5-0.4-0.9-0.4H36z"/>
	<path class="st0" d="M41.3,12.1L41.3,12.1c0.6,0,1,0.2,1.5,0.7c0.1,0.2,0.3,0.3,0.3,0.5c0.2,0.4,0.3,0.9,0.3,1.2v0.1
		c0,0.5-0.2,1-0.5,1.5v0.1l0,0l0.7,0.7c-0.1,0.1-0.1,0.1-0.2,0.2c-0.4-0.5-0.6-0.7-0.6-0.7c-0.4,0.4-0.9,0.6-1.4,0.6s-1-0.2-1.4-0.7
		c-0.5-0.5-0.7-1.1-0.7-1.8l0,0c0-0.7,0.3-1.2,0.7-1.8C40.3,12.4,40.8,12.1,41.3,12.1z M39.4,14.6c0,0.6,0.2,1.1,0.6,1.6
		c0.2,0.2,0.4,0.3,0.5,0.4s0.2,0.1,0.3,0.1c0.1,0.1,0.3,0.1,0.4,0.1h0.1c0.4,0,0.7-0.1,1.1-0.5l0.1-0.1L42,15.5l0.2-0.2l0.6,0.7
		c0.3-0.4,0.5-0.9,0.5-1.4v-0.1c0-0.5-0.2-1-0.5-1.5c-0.4-0.5-0.9-0.7-1.4-0.7s-1,0.3-1.4,0.7C39.6,13.5,39.4,14,39.4,14.6z"/>
	<path class="st0" d="M44.5,12.1h0.3l0,0v3.1c0,0.7,0.2,1.1,0.6,1.4c0.1,0.1,0.2,0.1,0.3,0.1s0.2,0,0.4,0h0.2c0.3,0,0.5-0.1,0.6-0.1
		c0.3-0.1,0.5-0.3,0.6-0.7c0.1-0.2,0.1-0.5,0.1-0.7v-3.1l0,0h0.3l0,0v3c0,0.5-0.1,0.8-0.2,1c-0.1,0.1-0.1,0.2-0.2,0.3
		c-0.3,0.4-0.7,0.5-1.1,0.5h-0.3c-0.6,0-1-0.3-1.2-0.9c-0.1-0.3-0.2-0.6-0.2-0.9v-3H44.5z"/>
	<path class="st0" d="M49.1,12.1V17l0,0h-0.3l0,0v-4.9H49.1z"/>
	<path class="st0" d="M50,12.1h3.3l0,0l-2.8,4.5l-0.1,0.1h2.8l0,0V17l0,0H50l0,0l2.4-3.9l0.5-0.7H50l0,0V12.1L50,12.1z"/>
	<path class="st0" d="M55.3,12.1h0.3c0,0,0.1,0.3,0.3,0.7l1.6,4.2l0,0h-0.3c0,0-0.1-0.1-0.1-0.3l-0.3-0.9h-2.4c0,0-0.1,0.2-0.2,0.6
		L53.8,17h-0.4l0,0l1.6-4.5C55.2,12.3,55.2,12.2,55.3,12.1z M55.4,12.4l-1.1,3.1h2.2L55.4,12.4L55.4,12.4z"/>
</g>
<g>
	<path class="st1" d="M27.7,50.8h-1.1l-0.4-0.9c-0.3,0.7-0.7,1-1.3,1.1c-1.2,0-1.9-0.8-1.9-2.4v-0.8c0-1.6,0.6-2.4,1.8-2.4
		c0.5,0,1,0.1,1.3,0.4v-2c0-0.5-0.3-0.8-0.7-0.8l0,0c-0.5,0-0.7,0.3-0.7,0.8v0.3h-1.6v-0.3c0-1.6,0.8-2.4,2.3-2.4
		c1.6,0,2.4,0.8,2.4,2.4L27.7,50.8L27.7,50.8z M24.6,48.6c0,0.5,0.3,0.8,0.7,0.8c0.5,0,0.7-0.3,0.7-0.8v-0.8c0-0.5-0.3-0.8-0.7-0.8
		c-0.5,0-0.7,0.3-0.7,0.8V48.6z"/>
	<path class="st1" d="M33.6,50.8H32v-9.3h1.1l0.3,0.7l0.1,0.3c0.3-0.7,0.7-1,1.3-1.1c0.8,0,1.3,0.4,1.6,1.1l0,0
		c0.3-0.7,0.7-1,1.3-1.1c1.2,0,1.8,0.8,1.8,2.4v7.1h-1.6v-7.1c0-0.5-0.2-0.8-0.7-0.8c-0.3,0-0.5,0.1-0.6,0.4c0,0.1,0,0.3,0,0.4v7.1
		H35v-7.1c0-0.5-0.2-0.8-0.7-0.8c-0.4,0-0.7,0.3-0.7,0.8C33.6,43.7,33.6,50.8,33.6,50.8z"/>
	<path class="st1" d="M41.1,38.6h1.6v1.6h-1.6V38.6z M41.1,41.4h1.6v9.4h-1.6V41.4z"/>
	<path class="st1" d="M23.1,53.6h1.5l0.5,1.2c0.3-0.9,0.9-1.4,1.7-1.4c1.6,0,2.5,1,2.5,3.1v6.4c0,2.1-0.9,3.1-2.5,3.1
		c-0.7-0.1-1.2-0.4-1.6-1.1v5.8H23C23.1,70.7,23.1,53.6,23.1,53.6z M25.3,63c0,0.7,0.3,1,0.9,1c0.7,0,0.9-0.3,0.9-1v-6.4
		c0-0.7-0.3-1-0.9-1c-0.7,0-0.9,0.3-0.9,1V63z"/>
	<path class="st1" d="M31,56.6c0-2.1,1-3.1,3.1-3.1s3.1,1,3.1,3.1V63c0,2.1-1,3.1-3.1,3.1S31,65.1,31,63V56.6z M33.2,63
		c0,0.7,0.3,1,0.9,1c0.7,0,0.9-0.3,0.9-1v-6.4c0-0.7-0.3-1-0.9-1l0,0c-0.7,0-0.9,0.3-0.9,1V63z"/>
	<path class="st1" d="M43.5,55.5h-1.4c-0.7,0-0.9,0.3-0.9,1v9.3H39V53.6h1.5l0.5,1.2c0.3-1,1-1.4,2.1-1.4c0.1,0,0.3,0,0.4,0V55.5z"
		/>
	<path class="st1" d="M45.2,53.6v-2.8h2.2v2.8H49v1.9h-1.6v10.4h-2.2V55.5h-1.6v-1.9H45.2z"/>
	<path class="st1" d="M56.3,65.8h-1.5l-0.5-1.2C54,65.5,53.4,66,52.6,66c-1.6,0-2.5-1-2.5-3.1v-1c0-2.1,0.8-3.1,2.4-3.1
		c0.7,0,1.2,0.1,1.7,0.5v-2.7c0-0.7-0.3-1-0.9-1l0,0c-0.6,0-0.9,0.3-0.9,1V57h-2.2v-0.4c0-2.1,1-3.1,3-3.1c2.1,0,3.1,1,3.1,3.1
		L56.3,65.8L56.3,65.8z M52.2,63c0,0.7,0.3,1,0.9,1c0.7,0,0.9-0.3,0.9-1v-1c0-0.7-0.3-1-0.9-1c-0.7,0-0.9,0.3-0.9,1V63z"/>
	<path class="st1" d="M60.5,55.5v10.4h-2.2V55.5h-1v-1.9h0.9V53c0-2.1,1-3.1,3.1-3.1V52c-0.7,0-0.9,0.3-0.9,1v0.6h1v1.9H60.5
		L60.5,55.5z"/>
	<path class="st1" d="M62.6,56.6c0-2.1,1-3.1,3.1-3.1s3.1,1,3.1,3.1V63c0,2.1-1,3.1-3.1,3.1s-3.1-1-3.1-3.1V56.6z M64.8,63
		c0,0.7,0.3,1,0.9,1c0.7,0,0.9-0.3,0.9-1v-6.4c0-0.7-0.3-1-0.9-1l0,0c-0.7,0-0.9,0.3-0.9,1V63z"/>
	<path class="st1" d="M72.7,49.9v15.9h-2.2V49.9H72.7z"/>
	<path class="st1" d="M74.4,49.9h2.2v2h-2.2V49.9z M74.4,53.6h2.2v12.3h-2.2V53.6z"/>
	<path class="st1" d="M78.3,56.6c0-2.1,1-3.1,3.1-3.1s3.1,1,3.1,3.1V63c0,2.1-1,3.1-3.1,3.1s-3.1-1-3.1-3.1V56.6z M80.4,63
		c0,0.7,0.3,1,0.9,1c0.7,0,0.9-0.3,0.9-1v-6.4c0-0.7-0.3-1-0.9-1l0,0c-0.7,0-0.9,0.3-0.9,1V63z"/>
	<path class="st1" d="M96.4,59.5l-6.2,3.3v-2.1l4.5-2.4l-4.5-2.4v-2.1l6.2,3.5V59.5z"/>
	<path class="st1" d="M108.2,59.5l-6.2,3.3v-2.1l4.5-2.4l-4.5-2.4v-2.1l6.2,3.5V59.5z"/>
	<path class="st1" d="M116.3,59.5l-6.2,3.3v-2.1l4.5-2.4l-4.5-2.4v-2.1l6.2,3.5V59.5z"/>
	<path class="st1" d="M124.3,59.5l-6.2,3.3v-2.1l4.5-2.4l-4.5-2.4v-2.1l6.2,3.4V59.5z"/>
</g>
<g>
	<g>
		<path class="st2" d="M89.5,79.1H14.7c-3.4,0-6.2-2.6-6.2-5.6V13.9c0-3.1,2.8-5.6,6.2-5.6l38.1-0.2l0,0c1.6,0,3.2,0.6,4.4,1.6
			l5.5,5c1.1,1,2.6,1.6,4.3,1.6h22.6c3.4,0,6.2,2.6,6.2,5.6v51.4C95.7,76.6,93,79.1,89.5,79.1z M52.9,8.3
			C52.8,8.3,52.8,8.3,52.9,8.3L14.8,8.5c-3.3,0-6,2.5-6,5.4v59.6c0,3,2.7,5.4,6,5.4h74.8c3.3,0,6-2.4,6-5.4V22c0-3-2.7-5.4-6-5.4H67
			c-1.6,0-3.2-0.6-4.4-1.6l-5.5-5C55.9,8.9,54.4,8.3,52.9,8.3z"/>
	</g>
	<g>
		<path class="st2" d="M95.6,22.3C66,22,9.7,21.8,8.7,22.3c0,0,0,0,0-0.1l-0.2-0.1c0-0.1,0.1-0.2,3.9-0.3c2.3-0.1,5.6-0.1,9.8-0.1
			c7.2,0,17.3,0,29.9,0C73.6,21.8,95.3,22,95.5,22L95.6,22.3z"/>
	</g>
</g>
<g>
	<path class="st3" d="M22.6,54.8h1.5l0.5,1.2c0.3-0.9,0.9-1.4,1.7-1.4c1.6,0,2.5,1,2.5,3.1V64c0,2.1-0.9,3.1-2.5,3.1
		c-0.7-0.1-1.2-0.4-1.6-1.1v5.8h-2.2L22.6,54.8L22.6,54.8z M24.8,64c0,0.7,0.3,1,0.9,1c0.7,0,0.9-0.3,0.9-1v-6.4c0-0.7-0.3-1-0.9-1
		c-0.7,0-0.9,0.3-0.9,1V64z"/>
	<path class="st3" d="M30.5,57.6c0-2.1,1-3.1,3.1-3.1s3.1,1,3.1,3.1V64c0,2.1-1,3.1-3.1,3.1s-3.1-1-3.1-3.1V57.6z M32.7,64
		c0,0.7,0.3,1,0.9,1c0.7,0,0.9-0.3,0.9-1v-6.4c0-0.7-0.3-1-0.9-1l0,0c-0.7,0-0.9,0.3-0.9,1V64z"/>
	<path class="st3" d="M43.1,56.7h-1.4c-0.7,0-0.9,0.3-0.9,1V67h-2.2V54.8h1.5l0.5,1.2c0.3-1,1-1.4,2.1-1.4c0.1,0,0.3,0,0.4,0
		C43.1,54.6,43.1,56.7,43.1,56.7z"/>
	<path class="st3" d="M44.7,54.7v-2.8h2.2v2.8h1.6v1.9h-1.6V67h-2.2V56.6h-1.6v-1.9C43.1,54.7,44.7,54.7,44.7,54.7z"/>
	<path class="st3" d="M55.8,67h-1.5l-0.5-1.2c-0.3,0.9-0.9,1.4-1.7,1.4c-1.6,0-2.5-1-2.5-3.1v-1c0-2.1,0.8-3.1,2.4-3.1
		c0.7,0,1.2,0.1,1.7,0.5v-2.7c0-0.7-0.3-1-0.9-1l0,0c-0.6,0-0.9,0.3-0.9,1v0.4h-2.2v-0.4c0-2.1,1-3.1,3-3.1c2.1,0,3.1,1,3.1,3.1
		L55.8,67L55.8,67z M51.7,64c0,0.7,0.3,1,0.9,1c0.7,0,0.9-0.3,0.9-1v-1c0-0.7-0.3-1-0.9-1c-0.7,0-0.9,0.3-0.9,1V64z"/>
	<path class="st3" d="M60,56.6V67h-2.2V56.6h-0.9v-2h0.9V54c0-2.1,1-3.1,3.1-3.1V53c-0.7,0-0.9,0.3-0.9,1v0.5h1v2L60,56.6L60,56.6z"
		/>
	<path class="st3" d="M62.1,57.6c0-2.1,1-3.1,3.1-3.1s3.1,1,3.1,3.1V64c0,2.1-1,3.1-3.1,3.1s-3.1-1-3.1-3.1V57.6z M64.3,64
		c0,0.7,0.3,1,0.9,1c0.7,0,0.9-0.3,0.9-1v-6.4c0-0.7-0.3-1-0.9-1l0,0c-0.7,0-0.9,0.3-0.9,1V64z"/>
	<path class="st3" d="M72.2,51v16H70V51H72.2z"/>
	<path class="st3" d="M73.9,51h2.2v2h-2.2V51z M73.9,54.7h2.2V67h-2.2V54.7z"/>
	<path class="st3" d="M77.8,57.6c0-2.1,1-3.1,3.1-3.1s3.1,1,3.1,3.1V64c0,2.1-1,3.1-3.1,3.1s-3.1-1-3.1-3.1V57.6z M80,64
		c0,0.7,0.3,1,0.9,1c0.7,0,0.9-0.3,0.9-1v-6.4c0-0.7-0.3-1-0.9-1l0,0c-0.7,0-0.9,0.3-0.9,1V64z"/>
</g>
<g>
	<path class="st4" d="M30.2,35.3c0,2.4-0.9,3.6-2.8,3.6c-0.9-0.1-1.6-0.6-2-1.6l-0.6,1.4h-1.7V20.4h2.5v5.2c0.4-0.8,1-1.2,1.8-1.2
		c1.9,0,2.8,1.2,2.8,3.6V35.3L30.2,35.3z M27.7,28c0-0.8-0.4-1.2-1.1-1.2s-1,0.4-1,1.2v7.3c0,0.8,0.3,1.2,1,1.2s1.1-0.4,1.1-1.2V28z
		"/>
	<path class="st4" d="M32.1,20.4h2.5v2.3h-2.5V20.4z M32.1,24.6h2.5v14h-2.5V24.6z"/>
	<path class="st4" d="M38.9,32.6v2.8c0,0.8,0.3,1.2,1,1.2l0,0c0.7,0,1-0.4,1-1.2v-1.1h2.5v1.1c0,2.4-1.2,3.6-3.5,3.6
		c-2.4,0-3.5-1.2-3.5-3.6v-7.2c0-2.4,1.2-3.6,3.5-3.6c2.4,0,3.5,1.2,3.5,3.6v4.5L38.9,32.6L38.9,32.6z M41.1,30.3V28
		c0-0.8-0.4-1.2-1.1-1.2s-1,0.4-1,1.2v2.3H41.1z"/>
	<path class="st4" d="M45.5,38.6V24.7h1.7l0.6,1.4c0.4-1,1-1.6,2-1.6c1.9,0,2.8,1.2,2.8,3.6v10.6h-2.5V28c0-0.8-0.4-1.2-1.1-1.2
		c-0.7,0-1,0.4-1,1.2v10.6H45.5z"/>
	<path class="st4" d="M62,24.6l-0.4,3l-1.7,11.1h-3.4l-1.8-11.1l-0.4-3h2.5l1.3,10l1.3-10C59.4,24.6,62,24.6,62,24.6z"/>
	<path class="st4" d="M66.2,32.6v2.8c0,0.8,0.3,1.2,1,1.2l0,0c0.7,0,1-0.4,1-1.2v-1.1h2.5v1.1c0,2.4-1.2,3.6-3.5,3.6
		s-3.5-1.2-3.5-3.6v-7.2c0-2.4,1.2-3.6,3.5-3.6s3.5,1.2,3.5,3.6v4.5L66.2,32.6L66.2,32.6z M68.3,30.3V28c0-0.8-0.4-1.2-1.1-1.2
		s-1,0.4-1,1.2v2.3H68.3z"/>
	<path class="st4" d="M72.7,38.6V24.7h1.7l0.6,1.4c0.4-1,1-1.6,2-1.6c1.9,0,2.8,1.2,2.8,3.6v10.6h-2.5V28c0-0.8-0.4-1.2-1.1-1.2
		s-1,0.4-1,1.2v10.6H72.7z"/>
	<path class="st4" d="M81.7,20.4h2.5v2.3h-2.5V20.4z M81.7,24.6h2.5v14h-2.5V24.6z"/>
	<path class="st4" d="M86.1,28c0-2.4,0.9-3.6,2.8-3.6c0.8,0.1,1.4,0.5,1.8,1.2v-5.2h2.5v18.1h-1.8l-0.6-1.4c-0.4,1-1,1.6-2,1.6
		c-1.9,0-2.8-1.2-2.8-3.6L86.1,28L86.1,28z M88.6,35.3c0,0.8,0.4,1.2,1.1,1.2s1-0.4,1-1.2V28c0-0.8-0.3-1.2-1-1.2s-1.1,0.4-1.1,1.2
		V35.3z"/>
	<path class="st4" d="M95.2,28c0-2.4,1.2-3.6,3.5-3.6s3.5,1.2,3.5,3.6v7.2c0,2.4-1.2,3.6-3.5,3.6c-2.4,0-3.5-1.2-3.5-3.6V28z
		 M97.6,35.3c0,0.8,0.3,1.2,1,1.2s1.1-0.4,1.1-1.2V28c0-0.8-0.3-1.2-1-1.2l0,0c-0.7,0-1,0.4-1,1.2L97.6,35.3L97.6,35.3z"/>
	<path class="st4" d="M106.7,34.2v1.1c0,0.8,0.3,1.2,1,1.2l0,0c0.7,0,1-0.4,1-1.2v-0.1c0-0.8-0.8-1.7-2.3-2.8
		c-1.6-1.1-2.3-2.4-2.3-3.9V28c0-2.4,1.2-3.6,3.5-3.6c2.4,0,3.5,1.2,3.5,3.6v1.1h-2.5V28c0-0.8-0.4-1.2-1.1-1.2s-1,0.4-1,1.2v0.1
		c0,0.9,0.8,1.8,2.3,2.9c1.6,1.1,2.3,2.4,2.3,4v0.2c0,2.4-1.2,3.6-3.5,3.6c-2.4,0-3.5-1.2-3.5-3.6v-1.1L106.7,34.2L106.7,34.2z"/>
</g>
<g>
	<g>
		<path class="st5" d="M106,68.1c-0.1,0.1-0.3,0.2-0.4,0.3c-0.5,0.3-1,0.5-1.6,0.8c-0.4,0.2-0.7,0.5-0.9,0.9
			c-0.3,0.6-0.6,1.2-0.9,1.8c-0.1,0.1-0.1,0.2-0.3,0.3c-0.1-0.1-0.1-0.2-0.2-0.3c-0.7-2-1.4-3.9-2.1-5.8c0-0.1-0.1-0.1-0.1-0.2
			c-0.1-0.1,0.1-0.3,0.2-0.2c0.3,0.1,0.5,0.2,0.9,0.3c1.7,0.6,3.3,1.2,5.1,1.8C105.8,67.9,105.9,67.9,106,68.1L106,68.1z M100,66.1
			c0.7,1.8,1.3,3.7,2,5.6c0-0.1,0.1-0.1,0.1-0.1c0.3-0.6,0.6-1.2,0.9-1.8c0.1-0.3,0.3-0.5,0.6-0.6c0.5-0.3,1-0.5,1.5-0.8
			c0.1-0.1,0.3-0.1,0.4-0.2C103.6,67.4,101.8,66.8,100,66.1z"/>
	</g>
	<g>
		<path class="st5" d="M101.2,65.3c0-0.1,0-0.3,0.1-0.3c0.4-0.3,0.7-0.7,1.1-1.1c0.1-0.1,0.1-0.1,0.1-0.1c0.1,0,0.1,0,0.1,0.1
			c0.1,0.1,0,0.1,0,0.1c-0.1,0.1-0.3,0.3-0.4,0.4C101.9,64.7,101.6,64.9,101.2,65.3C101.4,65.3,101.4,65.3,101.2,65.3z"/>
	</g>
	<g>
		<path class="st5" d="M97.6,68.8c0-0.1,0-0.2,0.1-0.3c0.4-0.4,0.7-0.7,1.1-1.1c0.1-0.1,0.1-0.1,0.2-0.1s0.1,0.1,0.1,0.1
			c0,0.1-0.1,0.1-0.1,0.1c-0.4,0.4-0.8,0.8-1.2,1.2C97.8,68.9,97.7,68.9,97.6,68.8z"/>
	</g>
	<g>
		<path class="st5" d="M99.1,65.3c-0.1,0-0.3,0-0.3-0.1c-0.3-0.4-0.7-0.7-1-1c-0.1-0.1-0.1-0.1-0.1-0.3c0-0.1,0.1-0.1,0.1-0.1
			c0.1,0,0.1,0.1,0.1,0.1c0.4,0.4,0.7,0.7,1.1,1.1C99.1,65,99.1,65.1,99.1,65.3z"/>
	</g>
	<g>
		<path class="st5" d="M96.6,66.3c0.1-0.1,0.2-0.1,0.3-0.1c0.5,0,1,0,1.5,0c0.1,0,0.2,0.1,0.3,0.1c-0.1,0.1-0.1,0.1-0.2,0.1
			c-0.5,0-1,0-1.6,0C96.7,66.4,96.7,66.4,96.6,66.3z"/>
	</g>
	<g>
		<path class="st5" d="M100.1,62.7c0.1,0.1,0.2,0.2,0.2,0.3c0,0.5,0,1,0,1.5c0,0.1-0.1,0.2-0.1,0.3c-0.1-0.1-0.1-0.1-0.1-0.3
			c0-0.5,0-1,0-1.6C100,62.8,100.1,62.8,100.1,62.7z"/>
	</g>
</g>
</svg>
