<?xml version="1.0" encoding="utf-8"?>
<!-- Generator: Adobe Illustrator 24.3.0, SVG Export Plug-In . SVG Version: 6.00 Build 0)  -->
<svg version="1.1" id="Capa_1" xmlns="http://www.w3.org/2000/svg" xmlns:xlink="http://www.w3.org/1999/xlink" x="0px" y="0px"
	 viewBox="0 0 403.6 430.5" style="enable-background:new 0 0 403.6 430.5;" xml:space="preserve">
<style type="text/css">
	.st0{fill:#FFFFFF;}
	.st1{fill:#CE6161;}
	.st2{fill:none;stroke:#000000;stroke-miterlimit:10;}
	.st3{fill:none;stroke:#C9BCBC;stroke-width:0.5;stroke-miterlimit:10;}
</style>
<g>
	
		<image style="overflow:visible;opacity:0.4;" width="422" height="451" xlink:href="756A149C.png"  transform="matrix(1 0 0 1 -6.5408 -5)">
	</image>
	<g>
		<rect x="-1.3" class="st0" width="403.6" height="433"/>
	</g>
</g>
<g>
	<defs>
		<rect id="SVGID_1_" x="25.5" y="28.5" width="347" height="347"/>
	</defs>
	<clipPath id="SVGID_2_">
		<use xlink:href="#SVGID_1_"  style="overflow:visible;"/>
	</clipPath>
	<g style="clip-path:url(#SVGID_2_);">
		
			<image style="overflow:visible;" width="5004" height="2481" xlink:href="../../../cv/logo-976757136-1600217461-e5d584e557826386c9a7c31bfabf30801600217461.jpg"  transform="matrix(0.1193 0 0 0.1193 -99.5602 17.5376)">
		</image>
	</g>
</g>
<g>
	<path class="st1" d="M40.2,397.5c0,0,5-4,10-4s7,7,3,13s-13,12.4-13,12.4s-8.9-6.4-12.9-12.4s-1-13,4-13S40.2,397.5,40.2,397.5z"/>
	<path class="st2" d="M104.1,413.6c1.1-2,1.8-4.3,1.8-6.8c0-7.7-6.3-14-14-14s-14,6.3-14,14s6.3,14,14,14c2.5,0,4.9-0.7,6.9-1.8
		l6.1,0.8L104.1,413.6z"/>
	<polygon class="st2" points="155.3,394.2 141.3,418.2 138.3,404.2 127.3,394.2 	"/>
	<line class="st2" x1="155.2" y1="394.4" x2="138.3" y2="404.2"/>
</g>
<rect x="25.5" y="28.5" class="st3" width="347" height="347"/>
</svg>
