<?xml version="1.0" encoding="utf-8"?>
<!-- Generator: Adobe Illustrator 24.3.0, SVG Export Plug-In . SVG Version: 6.00 Build 0)  -->
<svg version="1.1" id="Capa_1" xmlns="http://www.w3.org/2000/svg" xmlns:xlink="http://www.w3.org/1999/xlink" x="0px" y="0px"
	 viewBox="0 0 424.4 452.7" style="enable-background:new 0 0 424.4 452.7;" xml:space="preserve">
<style type="text/css">
	.st0{fill:#FFFFFF;}
	.st1{fill:#FF3F35;stroke:#FF3F35;stroke-miterlimit:10;}
	.st2{fill:none;stroke:#000000;stroke-miterlimit:10;}
</style>
<g>
	<g>
		
			<image style="overflow:visible;opacity:0.4;" width="417" height="446" xlink:href="D726597E.png"  transform="matrix(1 0 0 1 3.4 2.5932)">
		</image>
		<g>
			<rect x="9" y="7.8" class="st0" width="398.3" height="427.3"/>
		</g>
	</g>
	<g>
		<path class="st1" d="M42.8,401c0,0,4.3-3.4,8.5-3.4s6,6,2.6,11.1c-3.4,5.1-11.1,10.6-11.1,10.6s-7.6-5.4-11-10.6
			s-0.9-11.1,3.4-11.1S42.8,401,42.8,401z"/>
		<path class="st2" d="M97.3,414.7c1-1.7,1.5-3.7,1.5-5.8c0-6.6-5.3-11.9-11.9-11.9c-6.6,0-11.9,5.4-11.9,11.9s5.3,11.9,11.9,11.9
			c2.2,0,4.2-0.6,5.9-1.6l5.2,0.7L97.3,414.7z"/>
		<polygon class="st2" points="141,398.2 129.1,418.7 126.5,406.7 117.1,398.2 		"/>
		<line class="st2" x1="140.9" y1="398.4" x2="126.5" y2="406.7"/>
	</g>
	
		<image style="overflow:visible;" width="756" height="756" xlink:href="../../../cv/16729562_10206765621138533_8534092358788241328_n.jpg"  transform="matrix(0.4683 0 0 0.4683 31.4 28.9)">
	</image>
</g>
</svg>
