<?xml version="1.0" encoding="utf-8"?>
<!-- Generator: Adobe Illustrator 24.3.0, SVG Export Plug-In . SVG Version: 6.00 Build 0)  -->
<svg version="1.1" id="Capa_1" xmlns="http://www.w3.org/2000/svg" xmlns:xlink="http://www.w3.org/1999/xlink" x="0px" y="0px"
	 viewBox="0 0 403.6 430.5" style="enable-background:new 0 0 403.6 430.5;" xml:space="preserve">
<style type="text/css">
	.st0{fill:#FFFFFF;}
	.st1{fill:#CE6161;}
	.st2{fill:none;stroke:#000000;stroke-miterlimit:10;}
</style>
<g>
	
		<image style="overflow:visible;opacity:0.4;" width="423" height="451" xlink:href="3345E8EC.png"  transform="matrix(1 0 0 1 -5.5408 -5)">
	</image>
	<g>
		<rect class="st0" width="403.6" height="433"/>
	</g>
</g>
<g>
	<path class="st1" d="M37.7,397.5c0,0,5-4,10-4s7,7,3,13s-13,12.4-13,12.4s-8.9-6.4-12.9-12.4s-1-13,4-13S37.7,397.5,37.7,397.5z"/>
	<path class="st2" d="M101.5,413.6c1.1-2,1.8-4.3,1.8-6.8c0-7.7-6.3-14-14-14s-14,6.3-14,14s6.3,14,14,14c2.5,0,4.9-0.7,6.9-1.8
		l6.1,0.8L101.5,413.6z"/>
	<polygon class="st2" points="152.8,394.2 138.8,418.2 135.8,404.2 124.8,394.2 	"/>
	<line class="st2" x1="152.7" y1="394.4" x2="135.8" y2="404.2"/>
</g>
<image style="overflow:visible;" width="1000" height="1000" xlink:href="D:\Escritorio Viejo\Escritorio\el delicioso\imagenes\logoo.jpg"  transform="matrix(0.35 0 0 0.35 22.9592 28.4517)">
</image>
</svg>
